<svg width="428" height="176" viewBox="0 0 428 176" fill="none" xmlns="http://www.w3.org/2000/svg">
<rect x="40.3818" y="2.06006" width="374" height="145" rx="30" fill="#107EC2" fill-opacity="0.28"/>
<path d="M179.382 146.56C179.382 146.56 191.44 112.591 216.498 117.932C241.555 123.272 277.44 137.091 257.94 88.5912C238.44 40.0912 284.561 35.982 299.055 2.27239" stroke="black"/>
<path d="M187.882 146.56C187.882 146.56 198.44 114.591 223.498 119.932C248.555 125.272 284.44 139.091 264.94 90.5911C245.44 42.091 291.561 37.9818 306.055 4.27222" stroke="#9C9C9C"/>
<path d="M119.944 143.064C119.944 143.064 107.522 123.997 87.153 127.762C66.7841 131.527 39.5685 145.294 54.2524 105.624C68.9362 65.9534 53.5747 61.8823 40.8234 33.5711" stroke="#9C9C9C"/>
<path d="M119.944 147.064C119.944 147.064 107.522 127.997 87.153 131.762C66.7841 135.527 39.5685 149.294 54.2524 109.624C68.9362 69.9534 53.5747 65.8823 40.8234 37.5711" stroke="black"/>
<path d="M412.973 91.5599C412.973 91.5599 418.768 87.9009 407.474 87.8007C396.181 87.7006 376.149 71.4304 379.858 48.5063C383.566 25.5821 374.221 21.2064 363.473 2.06012" stroke="#9C9C9C"/>
<path d="M413.382 104.56C413.382 104.56 417.187 100.491 405.146 99.4867C393.105 98.4829 370.472 79.0703 372.608 54.2467C374.745 29.4231 364.441 23.8889 351.473 2.06009" stroke="black"/>
</svg>
